<?xml version="1.0" standalone="no"?>
<!DOCTYPE svg PUBLIC "-//W3C//DTD SVG 20010904//EN"
 "http://www.w3.org/TR/2001/REC-SVG-20010904/DTD/svg10.dtd">
<svg version="1.0" xmlns="http://www.w3.org/2000/svg"
 width="1124.000000pt" height="1034.000000pt" viewBox="0 0 1124.000000 1034.000000"
 preserveAspectRatio="xMidYMid meet">

<g transform="translate(0.000000,1034.000000) scale(0.100000,-0.100000)"
fill="#000000" stroke="none">
<path d="M5770 10325 c0 -19 20 -19 85 -1 l50 14 -67 1 c-54 1 -68 -2 -68 -14z"/>
<path d="M9415 9951 c-55 -5 -119 -13 -142 -20 -72 -20 -181 -110 -239 -198
-41 -62 -84 -171 -84 -214 0 -18 -4 -28 -10 -24 -6 4 -10 -15 -10 -49 0 -31 5
-56 10 -56 6 0 10 -16 10 -35 0 -111 123 -347 223 -428 60 -49 191 -114 267
-131 106 -25 280 -16 393 20 92 30 243 174 292 279 34 72 65 196 65 257 0 76
-34 198 -76 279 -45 85 -159 196 -248 241 -146 74 -256 93 -451 79z m252 -32
c39 -7 60 -15 56 -22 -3 -5 -1 -7 4 -4 6 4 44 -7 85 -23 40 -16 74 -30 75 -30
1 0 0 -6 -2 -13 -3 -7 8 -18 26 -26 85 -37 189 -162 221 -265 27 -86 35 -223
16 -261 -9 -17 -13 -36 -11 -43 3 -7 -2 -24 -11 -37 -9 -13 -16 -30 -16 -37 0
-7 -13 -24 -30 -38 -16 -14 -30 -33 -30 -42 0 -10 -3 -17 -7 -17 -28 5 -34 -3
-28 -34 6 -30 2 -36 -52 -83 -86 -74 -103 -83 -136 -71 -20 6 -32 6 -40 -2
-13 -13 -63 -15 -71 -3 -2 4 -31 7 -63 6 -32 -1 -66 2 -75 7 -9 5 -54 11 -99
14 -113 7 -205 25 -187 37 9 7 7 8 -9 5 -12 -3 -24 0 -26 7 -3 6 -22 20 -43
30 -46 23 -106 84 -139 141 -72 122 -112 324 -85 425 32 119 148 278 246 335
70 41 309 65 431 44z m418 -838 c-3 -12 -10 -21 -15 -21 -5 0 -4 11 2 25 13
29 23 26 13 -4z m-25 -35 c0 -2 -7 -7 -16 -10 -8 -3 -12 -2 -9 4 6 10 25 14
25 6z"/>
<path d="M9310 9642 c-61 -10 -121 -109 -127 -212 -4 -54 0 -73 19 -110 30
-59 93 -94 155 -86 31 4 47 1 66 -14 45 -35 72 -17 39 25 l-20 25 35 68 c32
62 35 73 31 139 -2 53 -9 79 -24 99 -34 46 -113 76 -174 66z m101 -65 c60 -41
70 -128 23 -218 -18 -36 -32 -37 -40 -1 -10 47 -14 54 -27 49 -13 -4 -16 -59
-3 -95 6 -18 3 -24 -16 -31 -87 -32 -149 109 -98 227 39 90 94 114 161 69z"/>
<path d="M9685 9493 c-5 -4 -27 -42 -47 -83 -21 -41 -58 -106 -83 -144 -49
-76 -60 -126 -25 -126 21 0 56 54 86 133 l17 49 28 -79 c37 -103 82 -148 141
-140 42 6 71 24 62 38 -3 5 -22 6 -44 3 -33 -5 -42 -2 -67 22 -25 24 -63 102
-63 127 0 4 15 7 33 8 46 0 119 32 141 62 24 33 13 81 -25 109 -28 21 -136 35
-154 21z m138 -60 c9 -9 17 -24 17 -33 0 -22 -68 -59 -121 -65 -69 -9 -75 2
-37 68 l33 57 45 -6 c25 -3 53 -13 63 -21z"/>
<path d="M1560 9735 c-1 -5 -1 -50 -1 -100 2 -99 -6 -121 -38 -112 -18 4 -21
1 -21 -23 0 -15 -7 -33 -16 -40 -21 -18 -88 15 -157 77 -29 26 -64 58 -79 72
-48 43 -41 16 17 -64 61 -86 71 -119 30 -109 -31 8 -32 -7 -3 -46 35 -48 15
-56 -76 -31 -43 12 -88 29 -102 37 -13 9 -27 14 -30 12 -3 -3 18 -20 46 -37
56 -35 140 -108 140 -123 0 -6 -26 -8 -60 -6 -33 1 -60 0 -60 -3 0 -3 14 -15
30 -27 27 -21 41 -52 23 -52 -5 0 -48 -7 -98 -15 -168 -28 -172 -33 -35 -46
49 -5 100 -14 112 -20 l22 -12 -22 -18 c-12 -9 -28 -20 -35 -23 -9 -5 -9 -7 0
-12 7 -3 22 -13 33 -22 l21 -17 -21 -40 c-24 -48 -24 -45 0 -45 14 0 20 -7 20
-21 0 -27 -14 -53 -68 -122 -25 -31 -43 -60 -40 -63 3 -3 33 13 66 34 33 21
88 49 122 62 71 27 85 20 74 -40 -4 -28 -3 -33 7 -22 20 19 49 15 49 -8 0 -16
7 -20 34 -20 53 0 61 -18 48 -108 -20 -139 -23 -172 -15 -172 4 0 19 25 31 54
26 60 86 136 107 136 13 0 25 -30 25 -67 0 -35 15 -27 33 17 17 44 37 51 74
25 20 -14 21 -13 26 27 7 51 30 77 55 62 9 -6 37 -47 62 -91 57 -103 76 -130
85 -121 3 3 -1 30 -9 59 -16 52 -22 179 -9 179 4 0 17 -10 30 -22 l23 -21 -1
29 c0 24 -2 25 -8 10 -7 -18 -8 -18 -14 -3 -3 9 -16 17 -27 17 -20 0 -21 -4
-18 -95 2 -52 2 -95 1 -95 -2 0 -16 26 -32 58 -17 31 -41 70 -54 87 -22 26
-28 29 -53 20 -23 -8 -31 -19 -40 -55 -6 -26 -13 -39 -18 -32 -4 7 -20 12 -36
12 -22 0 -33 -7 -43 -27 l-14 -26 -7 36 c-4 22 -13 37 -21 37 -23 0 -75 -50
-106 -104 -17 -28 -28 -42 -25 -31 3 11 8 57 12 102 8 96 0 113 -52 113 -27 0
-34 4 -34 20 0 15 -7 20 -25 20 -20 0 -25 5 -25 24 0 42 -24 52 -84 33 -29
-10 -75 -29 -101 -42 l-47 -25 24 28 c12 16 27 27 32 24 5 -3 6 0 3 5 -4 6 0
25 9 42 17 34 11 71 -12 71 -13 0 -12 4 1 30 19 37 19 55 -2 76 -16 15 -16 17
0 29 9 7 17 22 17 34 0 25 -33 41 -85 41 -19 0 -37 5 -40 10 -4 6 5 10 20 10
14 0 46 5 71 11 49 13 58 37 27 71 -15 17 -14 18 30 18 39 0 47 3 47 18 0 18
-32 52 -80 87 -16 11 -18 15 -7 11 10 -3 44 -9 74 -13 l56 -6 -6 41 c-4 31 -2
42 8 42 28 0 24 34 -11 93 l-36 62 39 -36 c105 -100 193 -119 193 -42 0 17 6
23 23 23 30 0 47 35 48 98 l1 47 9 -40 c13 -55 39 -106 69 -132 31 -28 44 -29
71 -2 17 17 20 29 16 56 -5 30 -4 33 9 22 20 -16 31 -4 47 52 l13 44 7 -60
c13 -107 23 -137 45 -133 10 2 26 22 37 46 11 23 22 42 26 42 4 0 7 -30 8 -66
1 -37 4 -70 7 -75 7 -12 51 -11 75 1 16 9 19 7 19 -10 0 -28 29 -26 90 5 28
14 51 24 53 23 5 -4 57 58 57 67 0 4 -18 -9 -40 -28 -42 -39 -109 -77 -135
-77 -12 0 -14 6 -9 27 6 23 5 25 -12 18 -10 -4 -34 -10 -51 -13 l-33 -4 0 106
c0 58 -4 106 -9 106 -5 0 -24 -34 -42 -75 -19 -41 -37 -75 -41 -75 -10 0 -26
57 -34 120 -7 60 -22 109 -23 78 -1 -10 -8 -36 -17 -59 -15 -35 -20 -40 -41
-34 -23 5 -24 4 -21 -41 8 -117 -91 -62 -123 68 -13 57 -47 139 -49 123z"/>
<path d="M2137 9336 c-20 -40 -37 -76 -37 -82 1 -5 19 26 41 70 22 43 39 80
37 81 -2 2 -20 -29 -41 -69z"/>
<path d="M2118 9233 c7 -3 16 -2 19 1 4 3 -2 6 -13 5 -11 0 -14 -3 -6 -6z"/>
<path d="M2161 9214 c-1 -34 12 -44 57 -44 26 0 26 -1 -17 -38 -31 -27 -42
-43 -38 -57 4 -19 5 -18 6 2 1 14 24 40 66 73 36 28 65 54 65 57 0 3 -7 0 -15
-7 -8 -6 -36 -12 -62 -13 -45 -2 -48 -1 -54 28 l-7 30 -1 -31z"/>
<path d="M1585 9170 c-22 -8 -52 -56 -42 -66 4 -4 15 4 26 17 23 28 41 21 73
-29 l20 -33 -41 -39 c-22 -22 -41 -44 -41 -50 0 -21 33 -9 64 24 l31 34 33
-29 c33 -30 72 -39 72 -16 0 6 -13 19 -29 29 -16 9 -48 46 -71 82 -46 73 -65
88 -95 76z"/>
<path d="M1853 9034 c-9 -15 -9 -31 -3 -55 6 -22 6 -37 0 -43 -17 -17 -11 -26
19 -26 31 0 50 15 29 22 -7 3 -17 31 -23 64 -10 53 -12 57 -22 38z"/>
<path d="M2185 9040 c3 -5 1 -11 -5 -15 -25 -15 -9 -42 33 -55 23 -8 70 -26
104 -40 l63 -26 -117 4 -116 5 6 -29 c4 -16 11 -46 16 -67 l9 -38 -34 7 c-41
8 -44 -7 -14 -66 11 -22 18 -40 15 -40 -4 0 -24 14 -46 32 -21 17 -41 29 -43
27 -6 -5 108 -97 131 -106 18 -7 19 -10 -29 66 -38 61 -38 82 2 71 l30 -9 -6
42 c-4 23 -11 50 -15 59 -20 38 -13 41 89 35 53 -4 124 -9 157 -13 l60 -5 -95
39 c-52 21 -119 47 -147 56 -58 19 -63 28 -33 49 l21 14 -21 6 c-11 3 -18 1
-15 -3z"/>
<path d="M2629 8736 c-56 -20 -96 -53 -126 -104 -24 -40 -28 -58 -28 -124 0
-73 2 -79 40 -134 57 -82 126 -119 220 -119 83 1 132 23 188 84 61 68 74 160
33 246 -61 128 -205 195 -327 151z m179 -30 c137 -71 185 -239 97 -347 -44
-54 -84 -72 -164 -77 -72 -3 -79 -2 -131 30 -80 48 -113 102 -118 187 -7 113
45 185 158 222 35 12 122 4 158 -15z"/>
<path d="M2642 8608 c-6 -6 -12 -21 -12 -32 1 -21 1 -21 16 -1 13 17 16 18 24
5 16 -24 12 -35 -26 -74 -28 -29 -34 -40 -25 -49 10 -9 20 -4 46 24 l33 36 22
-38 c20 -37 51 -53 49 -26 0 22 -86 162 -101 165 -7 1 -19 -3 -26 -10z"/>
<path d="M2808 8499 c-25 -14 -23 -32 2 -24 27 9 27 -18 -1 -44 -30 -28 -18
-47 33 -54 53 -7 72 7 32 25 -16 6 -30 13 -31 13 -2 1 3 15 9 32 9 25 9 35 -1
47 -16 19 -20 19 -43 5z"/>
<path d="M2015 8729 c-11 -16 -1 -19 13 -3 7 8 8 14 3 14 -5 0 -13 -5 -16 -11z"/>
<path d="M5055 8263 c-90 -19 -181 -64 -224 -111 -18 -20 -56 -85 -85 -144
-41 -87 -55 -108 -72 -108 -66 0 -229 -55 -369 -124 -82 -41 -170 -79 -195
-86 -25 -6 -82 -23 -128 -37 -108 -33 -153 -29 -223 22 -40 30 -55 36 -68 28
-41 -26 -12 -115 51 -153 79 -48 242 -4 648 175 139 61 228 91 248 84 16 -6
-77 -157 -136 -221 -56 -60 -115 -101 -164 -112 -23 -5 -33 0 -59 29 -36 39
-54 43 -87 19 -56 -39 1 -154 78 -154 127 0 292 137 415 345 l70 117 102 -6
c207 -14 396 -75 481 -154 45 -43 41 -67 -21 -143 -58 -69 -69 -96 -60 -141 8
-38 76 -114 127 -140 57 -29 171 -58 232 -58 59 0 77 -15 72 -57 -3 -28 -4
-28 -83 -31 -44 -2 -114 1 -155 7 -41 6 -185 25 -320 42 -288 36 -354 50 -437
95 -113 62 -142 34 -40 -41 20 -15 37 -31 37 -35 0 -4 -47 -24 -104 -45 -120
-44 -235 -102 -250 -127 -25 -41 8 -39 147 7 76 25 142 43 147 40 5 -3 -5 -28
-24 -55 -31 -45 -65 -144 -54 -156 13 -13 39 14 82 86 26 44 52 80 57 80 5 0
9 -14 9 -30 0 -36 25 -100 39 -100 16 0 20 13 36 101 7 45 21 89 30 98 25 25
220 20 365 -8 216 -43 365 -83 440 -119 37 -19 110 -83 110 -98 0 -6 -50 -23
-111 -38 -156 -39 -213 -62 -472 -192 -176 -88 -254 -133 -342 -198 -62 -47
-115 -90 -117 -96 -2 -6 -39 5 -91 26 -103 41 -360 97 -523 113 -60 6 -236 13
-391 17 -220 5 -283 10 -283 20 0 37 -95 22 -141 -22 -29 -28 -49 -25 -49 7 0
10 -5 19 -12 19 -6 0 -2 10 10 23 29 31 28 39 -5 31 l-28 -7 20 24 c12 13 27
33 35 43 16 21 18 21 -31 1 -29 -11 -30 24 -3 68 l27 42 -32 -29 c-25 -24 -31
-26 -31 -12 0 9 4 25 9 34 4 9 11 31 15 47 l8 30 -31 -29 c-17 -17 -31 -24
-31 -17 0 11 -3 11 -15 1 -13 -11 -14 -8 -8 21 l6 34 -22 -19 c-26 -23 -29
-21 -35 28 -3 21 -7 40 -10 43 -9 10 -38 -47 -43 -87 -7 -52 -40 -75 -46 -32
-3 25 -5 23 -27 -25 -13 -29 -27 -53 -31 -53 -4 0 -10 13 -14 30 -10 48 -25
45 -25 -4 0 -25 -1 -46 -2 -47 -2 0 -63 -6 -135 -13 -161 -15 -178 -25 -168
-96 4 -25 18 -71 31 -102 13 -32 24 -60 24 -63 0 -11 -19 -3 -84 36 -54 33
-70 38 -77 28 -12 -19 -12 -25 11 -107 19 -68 19 -75 4 -107 -21 -46 -69 -80
-138 -100 -71 -21 -71 -36 1 -85 29 -19 68 -56 87 -81 47 -63 126 -130 199
-171 33 -18 75 -48 92 -65 17 -18 35 -33 39 -33 4 0 12 14 18 30 8 23 25 38
69 60 104 53 180 138 225 252 42 108 54 126 88 134 90 19 142 70 133 129 -6
38 -2 43 52 62 31 11 39 9 109 -29 183 -97 327 -215 436 -357 52 -67 106 -164
106 -190 0 -18 -58 -61 -82 -61 -22 0 -150 55 -224 96 -33 19 -68 34 -76 34
-27 0 -220 -114 -228 -135 -4 -11 -11 -59 -15 -107 -4 -51 -12 -88 -18 -91 -7
-2 -57 -5 -112 -6 -124 -2 -360 -28 -387 -42 -30 -16 -18 -30 57 -69 38 -19
71 -40 72 -46 6 -18 -88 -72 -168 -98 -41 -14 -155 -48 -254 -76 -213 -61
-333 -98 -359 -113 -19 -9 -19 -10 3 -28 13 -11 33 -19 45 -19 26 0 104 -35
128 -57 39 -35 15 -64 -102 -122 -74 -37 -154 -95 -176 -128 -9 -15 -12 -35
-8 -61 5 -33 2 -43 -31 -82 -59 -72 -115 -118 -251 -205 -133 -85 -157 -106
-138 -125 8 -8 33 -8 88 -1 43 6 116 11 163 11 99 0 100 -8 8 -55 -67 -33 -65
-47 3 -17 73 32 454 132 506 132 51 0 58 -13 31 -60 -8 -14 -14 -28 -15 -32
-1 -31 257 32 445 108 215 87 260 80 257 -41 -2 -81 4 -82 95 -13 123 94 417
340 485 406 l67 65 48 -43 c68 -60 123 -90 205 -111 87 -23 98 -23 98 -3 0 9
29 46 64 82 l64 67 11 100 c9 83 29 201 37 213 3 5 196 33 200 29 8 -8 -38
-147 -71 -213 -40 -81 -42 -99 -17 -112 27 -15 127 3 164 29 84 59 180 146
247 224 71 83 75 86 107 81 77 -15 691 68 1074 144 214 43 693 201 996 331
129 54 251 108 271 118 21 11 79 38 128 61 114 54 192 99 385 223 85 55 191
123 234 151 77 49 207 149 389 299 177 144 383 401 419 519 23 79 2 96 -192
148 -222 61 -399 87 -705 106 -418 27 -788 16 -1116 -32 l-176 -26 -34 31
c-31 29 -93 51 -106 38 -3 -3 -27 3 -54 14 -123 48 -188 10 -205 -121 l-7 -50
-51 6 c-50 6 -276 63 -326 82 -30 11 -45 28 -54 60 -5 16 -3 22 7 22 33 0 177
83 224 129 68 67 123 174 123 239 l0 49 -52 20 c-51 19 -53 22 -59 64 -11 91
-54 140 -130 147 -41 4 -56 1 -79 -17 -16 -11 -33 -21 -37 -21 -15 1 -83 95
-120 164 -48 93 -150 194 -240 240 -131 66 -244 80 -388 49z m309 -45 c98 -32
238 -143 276 -219 29 -57 8 -70 -28 -17 -83 121 -265 227 -392 228 -33 0 -41
3 -30 10 12 8 12 10 -5 10 -17 0 -18 2 -5 10 20 14 110 3 184 -22z m-247 16
c-3 -3 -12 -4 -19 -1 -8 3 -5 6 6 6 11 1 17 -2 13 -5z m281 -109 c112 -61 177
-124 222 -215 l37 -77 -56 -13 c-70 -16 -128 -42 -164 -76 l-28 -26 -132 66
c-158 79 -287 116 -399 116 -43 0 -78 2 -78 5 0 3 9 24 20 46 40 78 139 167
225 202 31 13 66 16 160 14 119 -2 121 -3 193 -42z m286 -211 c3 -8 2 -12 -4
-9 -6 3 -10 10 -10 16 0 14 7 11 14 -7z m27 -71 c-9 -16 -10 -14 -11 12 0 21
3 26 11 18 8 -8 8 -16 0 -30z m280 -52 c33 -32 39 -45 39 -79 l0 -41 -36 15
c-55 23 -141 73 -155 91 -20 23 22 53 73 53 33 0 47 -7 79 -39z m-243 -1 c7
-11 9 -20 4 -20 -4 0 -13 9 -20 20 -7 11 -9 20 -4 20 4 0 13 -9 20 -20z m134
-62 c29 -18 73 -42 96 -52 46 -21 50 -30 27 -62 -32 -46 -119 -35 -163 21 -23
29 -38 86 -28 110 7 20 5 20 68 -17z m-1522 8 c0 -2 -15 -9 -32 -15 -30 -10
-31 -9 -14 4 18 14 46 20 46 11z m1258 -10 c15 -8 40 -27 55 -44 25 -26 28
-35 25 -87 -3 -49 -7 -61 -28 -76 -48 -34 -82 -33 -135 3 -58 38 -81 87 -71
143 12 62 91 94 154 61z m-1358 -36 c-8 -5 -19 -10 -25 -10 -5 0 -3 5 5 10 8
5 20 10 25 10 6 0 3 -5 -5 -10z m-91 -33 c-11 -7 -122 -51 -183 -73 -41 -14
-79 -21 -95 -18 -20 4 -23 3 -11 -5 11 -8 1 -11 -43 -11 -62 0 -91 10 -119 44
-25 30 -22 39 6 21 13 -9 35 -17 48 -19 13 -1 28 -5 34 -9 23 -14 144 12 334
72 22 7 41 6 29 -2z m1911 -38 c0 -4 7 -6 15 -3 8 4 15 1 15 -6 0 -6 4 -9 9
-6 14 9 21 -35 11 -74 -8 -34 -8 -34 -9 -6 -1 41 -9 29 -15 -24 -2 -25 -5 -46
-5 -47 -1 -2 -5 -3 -10 -3 -5 0 -7 10 -3 22 3 14 2 19 -6 14 -7 -4 -12 -15
-13 -24 0 -9 -5 -2 -10 16 -9 31 -12 32 -59 32 -47 0 -65 11 -37 24 6 3 1 3
-13 0 -14 -4 -27 -10 -30 -14 -3 -5 -18 -2 -35 6 l-30 14 30 -5 30 -4 -34 15
c-18 8 -31 17 -28 20 3 3 14 1 25 -5 28 -15 91 -14 122 2 14 7 31 26 39 44 9
19 19 29 27 26 8 -3 14 -9 14 -14z m-1852 -149 c7 -11 12 -23 11 -26 0 -3 10
-15 23 -26 l23 -20 -30 4 c-22 2 -30 8 -28 21 0 10 -2 16 -5 13 -9 -10 -32 15
-32 35 0 25 22 24 38 -1z m1102 -60 c5 0 12 -10 15 -21 4 -12 30 -43 58 -70
28 -27 46 -49 39 -49 -21 0 -53 20 -47 29 3 5 -2 12 -11 15 -9 4 -13 2 -8 -5
3 -6 -5 -3 -20 6 -14 10 -25 25 -24 34 2 9 -3 15 -9 14 -16 -4 -28 41 -18 64
8 17 8 17 12 1 3 -10 8 -18 13 -18z m623 -107 c-7 -2 -19 -2 -25 0 -7 3 -2 5
12 5 14 0 19 -2 13 -5z m-149 -169 c4 -9 2 -13 -5 -8 -7 4 -10 1 -7 -7 3 -8
14 -13 24 -12 27 2 73 -28 67 -44 -3 -7 -1 -13 4 -13 18 0 53 -37 53 -56 -1
-17 -2 -17 -10 -2 -6 9 -24 20 -41 23 -19 4 -33 15 -36 26 -5 19 -13 22 -43
20 -8 0 -5 4 8 11 23 11 30 28 12 28 -5 0 -10 -4 -10 -10 0 -19 -16 -10 -33
19 -21 35 -21 41 -3 41 8 0 17 -7 20 -16z m-839 -14 c13 -6 5 -7 -25 -3 -25 3
-47 7 -49 9 -9 8 55 2 74 -6z m196 -20 c45 -10 84 -22 88 -26 3 -4 -2 -4 -12
-1 -9 4 -65 12 -124 19 -100 12 -106 16 -41 27 4 0 44 -8 89 -19z m1426 -22
c-3 -8 -6 -5 -6 6 -1 11 2 17 5 13 3 -3 4 -12 1 -19z m-1271 -8 c9 0 13 -4 10
-8 -3 -5 -19 -7 -35 -4 -17 2 -28 9 -25 14 3 5 13 7 21 4 8 -3 21 -6 29 -6z
m148 -47 c30 -13 30 -14 4 -8 -38 7 -78 23 -78 30 0 7 32 -2 74 -22z m63 -19
c-3 -3 -12 -4 -19 -1 -8 3 -5 6 6 6 11 1 17 -2 13 -5z m636 -1 c-7 -2 -19 -2
-25 0 -7 3 -2 5 12 5 14 0 19 -2 13 -5z m467 -421 l0 -428 -42 -14 c-25 -9
-43 -21 -43 -30 0 -16 13 -17 58 -5 22 6 27 4 27 -11 0 -10 -12 -28 -27 -39
-29 -24 -24 -50 8 -40 18 6 19 -2 19 -279 l0 -284 -32 -11 c-194 -61 -336
-103 -348 -105 -8 0 -20 -6 -27 -12 -15 -14 -91 -27 -105 -18 -7 4 -8 2 -4 -4
4 -7 4 -12 -1 -12 -9 0 -155 -26 -193 -35 -92 -20 -195 -34 -222 -29 -25 4
-29 3 -18 -5 12 -8 6 -11 -25 -12 -22 -1 -47 -2 -55 -1 -8 0 -18 -4 -21 -10
-3 -5 -39 -11 -80 -12 -41 -1 -81 -5 -89 -8 -22 -9 -153 -26 -250 -33 -47 -3
-96 -7 -110 -9 -14 -2 -19 -1 -12 1 6 3 12 9 12 14 0 5 20 6 45 2 39 -5 45 -3
45 12 0 13 6 16 23 12 12 -3 38 -8 57 -11 34 -6 34 -6 -5 8 -22 8 -32 14 -22
15 9 1 17 6 17 11 0 16 -60 12 -76 -5 -9 -8 -31 -15 -50 -15 -19 0 -34 -4 -34
-9 0 -17 -35 -17 -48 -1 -11 13 -11 12 -3 -7 16 -31 14 -34 -18 -31 l-29 2 16
33 c8 18 19 30 24 27 4 -3 8 4 8 15 0 34 10 49 31 44 13 -4 19 0 19 10 0 8 -4
17 -9 19 -6 2 -6 17 -1 38 l8 35 2 -35 c2 -23 4 -28 8 -15 l5 20 8 -20 c6 -16
8 -17 8 -3 1 9 -3 20 -9 23 -14 8 -13 75 1 75 6 0 9 -7 6 -14 -4 -10 -1 -13 9
-9 18 7 18 19 0 26 -7 3 -17 22 -20 42 -9 47 -38 58 -141 52 -166 -10 -322
-58 -404 -125 -24 -19 -24 -21 -12 -77 8 -37 11 -81 6 -122 -6 -57 -10 -65
-32 -74 -14 -5 -35 -7 -46 -3 -13 4 -17 2 -13 -5 4 -6 1 -11 -8 -11 -8 0 -22
-3 -32 -7 -12 -4 -15 -3 -10 5 5 8 2 10 -8 6 -9 -3 -16 -10 -16 -15 0 -5 -17
-9 -38 -9 -31 0 -49 9 -99 53 -34 28 -85 78 -113 111 -76 87 -182 301 -195
392 -6 47 -4 53 25 86 l32 36 22 -23 c17 -17 35 -23 77 -24 250 -5 595 216
705 453 13 28 24 65 24 83 0 38 -32 73 -67 73 -25 0 -18 7 123 116 53 42 248
150 420 234 136 65 227 101 379 151 39 12 76 24 83 27 6 2 12 0 12 -4 0 -5
-19 -18 -42 -29 -49 -24 -136 -110 -145 -144 -10 -39 8 -73 47 -87 106 -38
295 3 650 143 192 76 340 188 340 260 0 17 20 41 38 43 1 0 2 -193 2 -428z
m-1065 408 c3 -5 2 -10 -4 -10 -5 0 -13 5 -16 10 -3 6 -2 10 4 10 5 0 13 -4
16 -10z m640 0 c-11 -5 -27 -9 -35 -9 -13 -1 -13 0 0 9 8 5 24 9 35 9 l20 0
-20 -9z m-225 -6 c0 -3 -7 -12 -15 -20 -16 -17 -18 -14 -9 10 6 15 24 23 24
10z m360 -45 c0 -6 -4 -7 -10 -4 -5 3 -10 11 -10 16 0 6 5 7 10 4 6 -3 10 -11
10 -16z m-3482 -421 c14 -14 16 -45 2 -53 -15 -9 -50 14 -50 34 0 31 25 42 48
19z m240 -80 c27 -23 7 -98 -27 -98 -26 0 -59 30 -66 61 -12 48 49 71 93 37z
m774 -8 c196 -10 330 -27 476 -60 48 -10 123 -26 167 -35 93 -19 222 -60 242
-76 20 -17 16 -49 -14 -104 -56 -106 -123 -181 -243 -271 -128 -96 -330 -170
-441 -162 l-43 3 -23 65 c-44 122 -203 327 -321 414 -51 37 -160 96 -260 139
l-62 27 21 42 21 41 146 -7 c81 -4 231 -11 334 -16z m-662 -200 c-13 -11 -30
-18 -37 -15 -8 2 -11 1 -8 -5 13 -22 -159 -51 -223 -37 -43 9 -44 10 -23 22
13 6 48 13 79 14 64 2 202 29 216 42 5 5 12 7 14 4 3 -3 -5 -14 -18 -25z
m-415 9 c11 -17 2 -18 -19 -3 -17 12 -17 14 -4 14 9 0 20 -5 23 -11z m45 -13
c0 -2 -7 -7 -16 -10 -8 -3 -12 -2 -9 4 6 10 25 14 25 6z m35 -26 c3 -5 -1 -10
-9 -10 -8 0 -18 5 -21 10 -3 6 1 10 9 10 8 0 18 -4 21 -10z m125 -205 c0 -15
-35 -73 -42 -69 -4 3 -8 -1 -8 -10 0 -39 -182 -155 -238 -151 -13 1 -29 11
-38 23 -8 12 -21 22 -27 22 -7 0 -4 -5 6 -11 30 -17 19 -28 -13 -12 -27 13
-29 17 -18 31 11 14 11 14 -7 5 -15 -9 -25 -7 -45 7 -44 31 -103 91 -96 97 3
4 13 -2 20 -13 15 -20 18 -20 231 -27 44 -1 85 -6 92 -10 6 -4 14 -3 18 3 3 6
21 16 38 24 18 7 50 32 72 55 36 37 55 49 55 36z m-540 -61 c0 -3 -7 -1 -15 6
-8 7 -15 17 -15 22 0 5 7 3 15 -6 8 -8 15 -18 15 -22z m1109 -212 c2 -97 11
-153 43 -260 14 -45 21 -85 17 -88 -5 -3 -9 -13 -8 -22 0 -14 2 -14 8 2 6 17
9 16 18 -10 7 -16 15 -40 19 -54 19 -70 88 -161 241 -319 64 -67 88 -98 80
-104 -8 -6 -6 -7 6 -3 11 4 28 -3 45 -19 15 -14 30 -25 35 -25 4 0 5 -5 2 -10
-4 -6 -3 -10 2 -9 18 3 31 -2 64 -27 l34 -26 -32 4 c-18 3 -33 1 -33 -4 0 -4
14 -8 30 -8 22 0 33 -6 40 -22 5 -13 9 -18 9 -13 1 6 11 16 22 24 12 7 2 -10
-22 -38 -28 -34 -50 -50 -61 -47 -10 2 -15 -1 -12 -9 9 -23 -24 -38 -67 -31
-99 16 -166 61 -321 219 -124 125 -224 254 -255 329 -51 126 -72 186 -78 233
-4 28 -11 68 -17 89 -5 21 -10 75 -10 118 0 90 8 104 76 138 22 11 59 31 81
45 22 13 41 24 41 24 1 1 2 -34 3 -77z m108 42 c24 -15 81 -40 126 -55 l82
-28 6 -73 c6 -76 30 -142 97 -271 39 -72 147 -208 182 -227 11 -6 20 -18 20
-27 0 -9 3 -13 6 -10 9 9 47 -20 50 -37 1 -8 -4 -17 -12 -20 -19 -7 -20 -142
-1 -149 6 -2 8 -8 4 -13 -4 -5 -12 -2 -17 6 -14 23 -20 7 -11 -32 13 -54 -13
-55 -92 -1 -76 52 -312 291 -368 375 -49 71 -60 101 -110 297 -27 105 -39 175
-39 222 0 80 6 84 77 43z m-323 -359 c17 -93 69 -234 118 -318 41 -70 129
-180 219 -272 l77 -80 -90 -75 c-49 -41 -95 -80 -101 -85 -7 -6 -22 -17 -34
-25 -44 -31 -238 -184 -244 -193 -4 -5 -11 -7 -17 -3 -6 3 -13 2 -17 -4 -4 -6
-11 -7 -17 -4 -6 4 -8 -1 -5 -12 4 -14 -6 -28 -36 -53 l-42 -33 -5 52 c-5 44
-11 57 -38 79 -25 21 -40 26 -69 23 -41 -3 -42 -4 -147 -51 -37 -17 -72 -29
-76 -26 -5 3 -10 0 -12 -5 -2 -6 -14 -12 -28 -14 -14 -1 -35 -8 -46 -14 -12
-6 -24 -8 -28 -5 -4 4 -21 0 -39 -9 -48 -24 -163 -51 -186 -43 -18 5 -19 9 -8
32 6 14 13 20 15 14 2 -6 8 -11 13 -11 6 0 8 4 5 9 -3 4 13 13 34 20 56 16 51
34 -7 29 -48 -3 -48 -3 -45 26 l4 29 -50 -7 c-46 -6 -52 -4 -69 18 -17 24 -22
25 -75 19 -32 -3 -58 -10 -58 -15 0 -5 5 -6 10 -3 6 3 10 -1 10 -10 0 -13 -4
-14 -21 -4 -14 7 -24 8 -31 1 -14 -14 1 -35 19 -28 11 5 13 2 9 -10 -5 -12 -2
-14 17 -7 12 4 42 7 67 6 33 -1 39 1 25 7 l-20 9 20 -1 c24 0 74 -15 60 -18
-5 -1 -1 -6 10 -11 17 -7 16 -8 -10 -7 -16 0 -37 -1 -45 -4 -60 -21 -214 -51
-269 -52 -37 -1 -72 -6 -79 -10 -6 -3 -21 -1 -34 6 -13 7 -25 14 -27 15 -7 4
26 31 47 37 24 8 29 22 10 29 -7 3 -3 6 10 6 12 1 22 -3 22 -9 0 -5 14 -10 30
-10 17 0 30 5 30 10 0 6 16 10 35 10 60 0 38 18 -32 26 -42 4 -73 3 -84 -4
-37 -24 -41 37 -4 74 24 24 35 51 16 39 -13 -7 -22 10 -15 28 3 9 12 13 19 11
8 -3 20 4 27 15 7 12 23 21 36 21 29 0 98 35 105 53 3 8 31 24 62 37 63 26 61
40 -6 45 -46 3 -65 23 -30 32 22 6 29 39 9 45 -15 5 -3 38 14 37 10 0 10 -2 0
-6 -6 -2 -10 -9 -6 -14 9 -14 24 -10 24 6 0 9 8 19 18 22 9 4 20 11 23 16 4 5
15 5 28 -2 17 -10 20 -9 15 4 -5 11 1 15 23 15 16 0 34 5 39 10 6 6 29 16 53
23 46 13 56 30 21 35 -18 3 -19 6 -8 20 11 15 11 15 -2 5 -8 -6 -30 -13 -48
-16 -24 -4 -35 -1 -42 13 -13 24 -13 27 4 33 11 4 13 1 9 -11 -6 -14 -5 -15 9
-2 20 19 5 40 -23 33 -15 -4 -22 0 -26 16 -5 21 -23 30 -23 11 0 -24 -31 -20
-55 6 -14 15 -25 29 -25 31 0 8 77 36 160 59 47 12 119 32 160 44 41 12 98 28
125 35 131 35 275 107 275 138 0 27 -31 55 -85 77 -30 12 -53 26 -50 30 2 4
44 10 92 14 49 4 108 10 133 13 144 17 255 29 257 29 0 -1 8 -41 17 -91z
m1670 59 c32 -12 15 -82 -57 -237 -22 -49 -49 -93 -59 -98 -10 -5 -18 -14 -18
-20 0 -6 -34 -51 -75 -100 -62 -72 -148 -151 -242 -221 -14 -11 -131 -30 -142
-23 -5 2 9 40 30 82 81 161 104 289 75 418 l-15 70 27 23 c53 44 113 67 247
97 63 14 202 19 229 9z m99 -301 c-7 -2 -21 -2 -30 0 -10 3 -4 5 12 5 17 0 24
-2 18 -5z m-2749 -179 c5 -13 4 -14 -7 -6 -8 7 -18 8 -22 4 -5 -4 -5 -1 -1 6
10 17 23 15 30 -4z m1886 -29 c0 -5 -5 -3 -10 5 -5 8 -10 20 -10 25 0 6 5 3
10 -5 5 -8 10 -19 10 -25z m-2280 -615 c0 -13 -5 -18 -14 -14 -8 3 -12 12 -9
20 8 21 23 17 23 -6z"/>
<path d="M5836 7711 c-4 -5 -2 -12 3 -15 5 -4 12 -2 15 3 4 5 2 12 -3 15 -5 4
-12 2 -15 -3z"/>
<path d="M5537 7634 c-8 -8 1 -24 14 -24 5 0 9 7 9 15 0 15 -12 20 -23 9z"/>
<path d="M4200 7471 c0 -6 4 -13 10 -16 6 -3 7 1 4 9 -7 18 -14 21 -14 7z"/>
<path d="M5878 6179 c-37 -21 -90 -271 -91 -429 -1 -122 10 -164 41 -158 18 4
18 8 10 141 -2 31 -3 57 -2 57 2 0 47 9 102 20 l100 19 39 -35 c47 -44 107
-76 127 -68 28 11 17 30 -39 69 -30 20 -55 44 -55 51 0 8 -4 13 -9 12 -5 -2
-20 11 -33 29 -12 18 -37 51 -54 75 -17 24 -49 81 -69 128 -46 102 -46 101
-67 89z m42 -149 c12 -30 35 -77 52 -103 17 -26 28 -50 25 -53 -5 -6 -150 -33
-155 -29 -1 1 9 54 23 118 14 64 25 120 25 123 0 14 9 -2 30 -56z"/>
<path d="M6349 6093 c-6 -16 -13 -43 -16 -61 l-6 -33 -32 31 c-44 43 -92 46
-114 8 -18 -32 -8 -47 19 -30 28 17 33 16 73 -25 l37 -36 0 -117 c0 -122 9
-150 45 -136 12 4 15 25 15 100 l0 94 37 -19 c41 -21 103 -25 120 -8 6 6 8 20
6 30 -5 16 -11 19 -34 14 -18 -4 -44 1 -74 14 l-45 20 4 90 c3 74 1 91 -10 91
-8 0 -19 -12 -25 -27z"/>
<path d="M5150 5330 c0 -6 7 -10 15 -10 8 0 15 2 15 4 0 2 -7 6 -15 10 -8 3
-15 1 -15 -4z"/>
<path d="M5010 5195 c0 -8 4 -15 10 -15 5 0 7 7 4 15 -4 8 -8 15 -10 15 -2 0
-4 -7 -4 -15z"/>
<path d="M5325 5181 c-3 -6 10 -7 32 -4 50 8 55 13 10 13 -20 0 -38 -4 -42 -9z"/>
<path d="M3865 4960 c-3 -5 -2 -10 4 -10 5 0 13 5 16 10 3 6 2 10 -4 10 -5 0
-13 -4 -16 -10z"/>
<path d="M4110 4776 c0 -2 7 -7 16 -10 8 -3 12 -2 9 4 -6 10 -25 14 -25 6z"/>
<path d="M2120 4280 c-8 -5 -10 -10 -5 -10 6 0 17 5 25 10 8 5 11 10 5 10 -5
0 -17 -5 -25 -10z"/>
<path d="M7693 4533 c-23 -9 -14 -67 20 -138 39 -81 112 -180 206 -281 36 -38
100 -107 141 -153 41 -46 87 -96 101 -112 l27 -28 -24 -60 c-47 -117 -49 -294
-4 -414 47 -124 172 -264 313 -350 103 -63 181 -82 332 -82 118 1 138 3 218
31 l89 31 96 -81 c111 -93 216 -172 317 -239 39 -25 90 -59 114 -76 54 -38
101 -42 101 -8 0 66 -187 358 -324 507 -85 91 -81 81 -46 136 45 72 71 164 77
279 5 83 2 113 -16 179 -65 235 -187 372 -392 438 -166 53 -208 57 -329 33
-87 -17 -239 -63 -257 -77 -9 -7 -45 21 -130 101 -149 141 -264 223 -426 306
-120 61 -165 74 -204 58z m462 -388 c104 -63 189 -135 177 -150 -4 -5 -24 -25
-44 -43 l-36 -34 -41 45 c-54 58 -101 121 -134 178 -45 76 -41 76 78 4z m878
-69 c180 -76 246 -133 312 -271 61 -125 79 -220 66 -340 -11 -91 -25 -145 -55
-202 -21 -42 -110 -147 -141 -167 -26 -17 -27 -17 -123 55 -282 212 -569 470
-749 675 l-63 71 48 46 c73 68 118 92 243 131 157 48 193 55 279 51 62 -3 93
-11 183 -49z m-731 -364 c21 -22 77 -75 125 -118 48 -43 140 -128 203 -189 63
-62 190 -178 282 -258 92 -80 164 -148 160 -151 -27 -17 -217 -56 -270 -56
-81 0 -224 34 -282 67 -91 52 -215 164 -266 240 -96 145 -119 340 -58 499 l17
44 26 -19 c14 -11 43 -37 63 -59z m1040 -654 c39 -69 78 -144 78 -153 0 -15
-26 1 -97 57 -118 95 -113 85 -67 124 21 18 41 33 44 34 3 0 22 -28 42 -62z
m163 -358 c3 -6 -1 -7 -9 -4 -18 7 -21 14 -7 14 6 0 13 -4 16 -10z"/>
<path d="M8766 3961 c-4 -5 -11 -34 -17 -65 -20 -107 23 -259 89 -317 33 -29
39 -31 95 -27 46 4 64 9 78 26 10 13 20 18 24 12 8 -12 42 -13 49 -1 3 5 -1
28 -8 52 -8 24 -18 103 -23 174 -8 125 -9 130 -31 133 l-22 3 1 -139 c1 -154
-7 -188 -52 -209 -48 -23 -84 -1 -121 75 -30 61 -33 74 -31 152 1 47 3 96 5
110 3 25 -24 41 -36 21z"/>
<path d="M8380 3511 c-17 -33 -14 -198 5 -277 24 -98 32 -103 157 -97 95 5
124 15 112 35 -3 4 -26 8 -52 8 -26 0 -70 3 -97 6 -49 6 -51 8 -65 48 -7 22
-16 97 -19 165 -6 126 -17 156 -41 112z"/>
<path d="M1850 1766 c-19 -24 -8 -60 23 -70 23 -8 31 -6 49 12 19 18 20 25 10
47 -13 29 -61 35 -82 11z"/>
<path d="M1032 1748 c3 -7 15 -14 27 -16 34 -5 41 -40 41 -205 0 -182 -3 -196
-41 -204 -16 -3 -29 -12 -29 -19 0 -11 38 -14 210 -14 l210 0 0 24 c0 12 3 51
6 85 6 52 5 61 -9 61 -10 0 -26 -20 -39 -47 -34 -69 -65 -88 -146 -88 l-67 0
-3 90 c-3 108 4 122 50 109 24 -7 38 -20 51 -47 10 -20 25 -37 33 -37 11 0 14
20 14 98 0 54 -3 102 -7 105 -9 10 -33 -13 -33 -33 0 -28 -35 -52 -72 -48
l-33 3 0 80 0 80 59 3 c80 4 108 -10 140 -69 43 -77 61 -64 51 36 l-7 65 -205
0 c-159 0 -204 -3 -201 -12z"/>
<path d="M2472 1748 c3 -7 15 -14 27 -16 34 -5 41 -40 41 -205 0 -182 -3 -196
-41 -204 -16 -3 -29 -12 -29 -19 0 -21 301 -20 361 1 90 32 140 112 140 223 0
110 -51 190 -140 220 -49 17 -364 16 -359 0z m325 -46 c48 -34 67 -84 67 -178
0 -139 -47 -194 -166 -197 l-63 -2 -3 190 c-1 104 0 196 3 203 9 23 123 12
162 -16z"/>
<path d="M5060 1750 c0 -6 14 -13 30 -17 17 -3 35 -14 40 -24 11 -19 11 -178
1 -299 -6 -74 -6 -75 -38 -85 -18 -5 -33 -15 -33 -22 0 -16 175 -19 185 -3 3
5 -9 16 -28 24 -42 17 -47 39 -46 226 0 159 -5 164 95 -88 l69 -173 30 3 c29
3 32 8 102 188 40 102 74 190 77 195 2 6 5 -68 5 -163 l1 -173 -35 -15 c-62
-25 -41 -34 86 -34 92 0 120 3 117 13 -3 6 -14 13 -26 15 -40 6 -43 21 -40
218 l3 188 33 8 c62 16 34 29 -59 26 l-91 -3 -67 -168 c-37 -92 -70 -169 -73
-172 -2 -3 -35 74 -73 170 l-69 175 -98 0 c-60 0 -98 -4 -98 -10z"/>
<path d="M6900 1753 c0 -5 13 -15 29 -24 25 -15 34 -34 70 -150 85 -275 93
-294 122 -297 14 -2 30 3 36 10 6 7 32 86 58 176 26 89 49 161 51 160 1 -2 23
-68 49 -148 66 -209 62 -202 99 -198 31 3 31 3 92 188 67 203 84 244 114 260
39 21 19 30 -65 30 -88 0 -105 -9 -57 -32 22 -11 26 -20 24 -43 -3 -34 -60
-242 -72 -264 -5 -10 -28 49 -65 162 l-56 177 -32 0 -33 0 -48 -167 c-42 -142
-66 -209 -66 -180 0 4 -18 67 -40 139 -48 158 -49 174 -15 182 14 4 23 11 20
16 -7 12 -215 14 -215 3z"/>
<path d="M8422 1722 c-24 -20 -32 -35 -32 -59 0 -31 -2 -33 -35 -33 -24 0 -35
-5 -35 -15 0 -10 11 -15 35 -15 l35 0 0 -135 c0 -131 1 -137 25 -160 28 -29
54 -31 118 -9 57 19 61 34 8 34 -59 0 -66 15 -66 149 l0 116 75 0 75 0 3 -137
c3 -136 3 -137 30 -158 21 -17 36 -21 68 -16 84 11 130 54 51 48 -50 -5 -57
14 -57 152 l0 116 46 0 c59 0 55 24 -4 28 l-42 3 0 47 c0 72 -11 80 -54 46
-28 -23 -36 -36 -36 -61 l0 -33 -80 0 -80 0 0 60 c0 33 -3 60 -7 60 -5 0 -23
-13 -41 -28z"/>
<path d="M1475 1620 c-3 -6 6 -15 22 -21 15 -5 31 -16 35 -22 9 -15 11 -209 2
-232 -4 -9 -17 -21 -30 -26 -50 -18 -23 -29 75 -29 103 0 133 10 82 28 -23 8
-31 19 -37 47 -9 51 2 158 21 194 15 29 54 60 56 44 0 -4 2 -21 2 -38 2 -27 5
-30 37 -30 31 0 36 4 45 33 5 17 14 32 20 32 29 0 35 -27 35 -147 0 -123 0
-124 -25 -133 -51 -20 -25 -30 75 -30 99 0 126 10 76 29 -13 5 -26 17 -30 26
-3 9 -6 77 -6 151 l0 134 -127 -1 c-123 -1 -129 -2 -155 -27 l-28 -26 0 27 c0
27 -1 27 -69 27 -39 0 -73 -5 -76 -10z"/>
<path d="M2080 1612 c-56 -28 -80 -73 -80 -152 0 -73 19 -114 71 -152 53 -40
154 -32 214 16 42 34 25 43 -30 16 -41 -20 -51 -21 -86 -11 -48 14 -68 43 -75
107 -14 118 61 211 130 161 16 -12 17 -16 5 -35 -12 -19 -11 -24 8 -44 19 -19
26 -20 48 -10 27 12 34 47 15 82 -22 41 -156 55 -220 22z"/>
<path d="M3070 1623 c-30 -11 -50 -37 -50 -63 0 -32 17 -50 46 -50 30 0 45 22
42 61 -3 32 -1 34 29 37 42 4 73 -26 73 -73 0 -32 -3 -35 -37 -40 -82 -14
-143 -36 -158 -57 -8 -13 -15 -41 -15 -64 0 -35 5 -47 31 -68 38 -33 73 -33
132 -1 l47 24 24 -24 c30 -29 37 -30 79 -9 21 12 32 13 35 5 2 -7 38 -11 102
-11 96 0 138 13 85 26 -35 9 -45 32 -45 106 0 73 13 128 38 157 28 34 45 30
46 -9 1 -33 3 -35 36 -35 31 0 36 4 46 33 14 45 20 36 93 -133 59 -139 60
-140 94 -143 l34 -3 38 88 c60 141 93 201 120 219 37 24 22 34 -50 34 -68 0
-92 -14 -51 -30 14 -5 26 -14 26 -19 0 -22 -84 -221 -90 -214 -11 13 -80 192
-80 208 0 9 12 20 27 26 51 19 3 29 -139 28 -133 -1 -138 -1 -162 -26 l-26
-26 0 27 c0 26 -1 26 -69 26 -76 0 -100 -14 -52 -31 38 -13 44 -42 40 -168 -4
-95 -15 -119 -46 -106 -10 5 -26 7 -36 6 -26 -3 -37 39 -37 145 0 92 -1 97
-29 125 -27 27 -35 29 -103 28 -40 0 -80 -3 -88 -6z m140 -198 c0 -74 -64
-122 -102 -77 -23 27 -29 52 -17 74 12 22 62 47 97 48 20 0 22 -5 22 -45z"/>
<path d="M4103 1610 c-118 -72 -95 -275 36 -319 62 -20 130 -7 181 35 40 34
29 49 -16 22 -42 -25 -114 -28 -140 -7 -20 17 -44 70 -44 99 0 19 6 20 120 20
l120 0 0 33 c0 46 -31 97 -71 119 -47 25 -143 24 -186 -2z m134 -15 c19 -13
43 -68 43 -97 0 -5 -36 -8 -80 -8 -89 0 -92 3 -66 64 22 54 63 69 103 41z"/>
<path d="M5779 1601 c-34 -35 -35 -41 -10 -72 16 -20 23 -22 47 -13 25 8 29
15 29 49 0 37 2 40 31 43 38 4 74 -35 74 -79 0 -25 -5 -29 -37 -34 -77 -13
-140 -35 -159 -56 -27 -30 -25 -91 5 -123 42 -45 105 -42 174 6 15 11 20 10
28 -4 18 -33 45 -40 86 -23 24 10 39 12 41 5 5 -13 202 -14 202 -1 0 6 -12 16
-27 23 -27 13 -28 17 -31 93 -4 95 9 147 44 174 30 24 49 19 34 -8 -13 -26 9
-54 41 -49 16 2 29 14 39 35 8 18 20 31 25 30 18 -5 167 -320 161 -342 -11
-43 -51 -90 -80 -93 -25 -3 -27 -2 -16 17 8 15 8 27 0 41 -14 26 -56 26 -70 1
-35 -66 43 -116 118 -77 33 17 55 57 153 275 53 120 79 166 96 174 46 20 27
37 -41 37 -63 0 -98 -16 -58 -27 11 -3 23 -10 25 -17 5 -14 -67 -201 -78 -201
-10 0 -84 164 -84 188 -1 10 10 22 25 27 14 6 22 14 19 20 -8 14 -178 13 -192
-1 -8 -8 -13 -8 -17 0 -4 6 -27 11 -50 11 -33 0 -49 -6 -70 -26 l-26 -27 0 27
c0 26 -1 26 -69 26 -77 0 -96 -12 -54 -32 36 -17 46 -62 40 -171 -5 -94 -14
-115 -44 -102 -10 5 -26 7 -35 6 -28 -3 -38 33 -38 139 0 99 -1 102 -29 131
-28 27 -34 29 -111 29 -77 0 -83 -2 -111 -29z m171 -165 c0 -71 -36 -114 -85
-102 -28 7 -53 61 -38 85 12 21 72 51 101 51 18 0 22 -5 22 -34z"/>
<path d="M7664 1616 c-52 -23 -78 -71 -82 -151 -3 -60 0 -75 20 -104 36 -54
82 -76 158 -76 126 1 180 52 180 172 0 82 -23 127 -80 155 -42 22 -151 23
-196 4z m151 -30 c29 -29 39 -76 33 -161 -3 -50 -9 -70 -28 -90 -27 -29 -74
-33 -107 -10 -39 27 -55 136 -32 217 17 64 90 88 134 44z"/>
<path d="M8033 1605 c-102 -63 -96 -245 10 -302 47 -26 161 -24 207 2 52 30
82 95 78 168 -5 61 -23 95 -72 131 -21 16 -45 22 -104 24 -68 3 -82 0 -119
-23z m164 -19 c25 -22 28 -32 33 -102 8 -122 -18 -174 -87 -174 -50 0 -80 35
-88 104 -11 89 9 165 49 184 35 17 63 13 93 -12z"/>
<path d="M8862 1601 c-25 -19 -44 -43 -52 -66 -17 -52 -8 -149 16 -183 26 -35
99 -72 144 -72 42 0 108 29 134 59 28 31 14 35 -29 10 -43 -26 -115 -30 -141
-8 -20 17 -44 70 -44 98 0 19 8 21 123 23 l122 3 -3 33 c-7 87 -62 132 -163
132 -57 0 -71 -4 -107 -29z m152 -13 c13 -13 27 -40 31 -60 l6 -38 -81 0 c-44
0 -80 3 -80 8 0 29 24 84 43 97 30 21 52 19 81 -7z"/>
<path d="M9140 1615 c0 -8 8 -15 19 -15 36 0 42 -23 39 -146 -3 -119 -3 -119
-31 -132 -46 -22 -21 -32 84 -32 101 0 121 9 72 32 -27 13 -28 16 -31 103 -3
99 12 145 57 174 24 15 24 15 17 -13 -12 -50 36 -76 76 -39 17 15 18 14 18
-19 0 -48 14 -62 100 -105 54 -27 76 -44 78 -59 8 -55 -76 -74 -122 -27 -14
14 -29 37 -32 50 -4 12 -12 23 -20 23 -10 0 -14 -16 -14 -61 0 -52 2 -60 16
-55 9 3 42 1 74 -6 100 -20 173 23 173 101 0 49 -26 77 -101 105 -82 31 -103
60 -73 98 16 20 23 21 57 13 30 -8 44 -18 59 -47 11 -21 25 -36 30 -35 6 2 10
25 10 52 l0 48 -78 4 c-87 5 -129 -6 -145 -40 -10 -22 -10 -22 -20 4 -19 47
-97 55 -137 15 -25 -25 -35 -24 -35 6 0 16 -9 18 -70 18 -56 0 -70 -3 -70 -15z"/>
<path d="M4685 1561 c-27 -11 -42 -30 -50 -62 -5 -19 0 -34 20 -57 32 -38 70
-42 109 -11 66 52 -1 162 -79 130z"/>
<path d="M783 976 c-62 -28 -79 -110 -32 -152 12 -11 53 -35 91 -54 43 -21 74
-43 79 -56 11 -31 -11 -67 -49 -78 -50 -14 -94 11 -121 69 -12 25 -26 43 -31
40 -6 -3 -10 -32 -10 -64 l0 -58 38 -3 c158 -9 172 -7 203 28 31 34 38 77 18
113 -6 12 -49 38 -95 59 -58 27 -87 46 -93 62 -16 44 12 78 64 78 41 0 63 -17
79 -63 19 -56 31 -50 34 19 l3 60 -38 0 c-21 1 -54 4 -73 8 -22 4 -47 1 -67
-8z"/>
<path d="M1840 972 c-13 -11 -25 -35 -29 -58 -5 -30 -11 -40 -29 -42 -29 -4
-29 -20 1 -24 21 -3 22 -8 25 -91 3 -101 -4 -117 -53 -117 -41 0 -45 10 -45
104 0 100 -20 126 -94 126 -30 0 -61 -6 -74 -16 -20 -14 -22 -14 -22 0 0 12
-11 16 -50 16 -53 0 -67 -14 -25 -24 24 -6 25 -8 25 -102 0 -103 -4 -110 -55
-96 l-30 8 -5 93 c-6 111 -15 121 -102 121 -45 0 -63 -5 -78 -20 -24 -24 -25
-34 -5 -54 27 -26 50 -8 46 37 -2 13 5 17 34 17 28 0 38 -5 47 -24 17 -38 5
-51 -59 -64 -67 -14 -93 -35 -93 -76 0 -33 41 -76 72 -76 13 0 38 9 57 21 l33
20 15 -21 c11 -16 21 -20 37 -15 11 4 58 6 104 5 76 -1 109 11 62 23 -18 5
-20 14 -20 86 0 70 3 83 22 101 28 25 62 26 88 0 17 -17 20 -33 20 -100 0 -78
-1 -81 -27 -93 -26 -11 -21 -12 49 -15 43 -2 113 -2 155 0 71 3 76 4 51 15
-28 12 -28 13 -28 113 l0 100 30 0 c17 0 30 5 30 10 0 6 -13 10 -30 10 -23 0
-31 5 -36 24 -10 41 -1 71 22 74 18 3 21 -1 17 -22 -4 -18 0 -28 11 -32 20 -8
46 13 46 37 0 38 -72 52 -110 21z m-510 -255 c0 -34 -18 -58 -53 -70 -19 -7
-57 24 -57 47 0 22 49 56 81 56 26 0 29 -3 29 -33z"/>
<path d="M2603 983 c-34 -4 -46 -23 -15 -23 29 0 42 -21 42 -67 0 -41 -11 -55
-25 -33 -3 6 -30 10 -60 10 -43 0 -60 -5 -84 -26 -51 -42 -59 -113 -22 -183
27 -50 118 -67 165 -30 21 17 26 18 26 5 0 -13 11 -16 51 -16 31 0 48 4 44 10
-3 6 -12 10 -20 10 -22 0 -25 25 -25 191 0 179 8 162 -77 152z m3 -154 c28
-31 26 -142 -4 -171 -29 -29 -79 -28 -104 1 -27 34 -26 143 2 171 27 27 81 26
106 -1z"/>
<path d="M3601 977 c-25 -31 20 -71 48 -42 12 12 13 19 5 33 -15 22 -38 26
-53 9z"/>
<path d="M4710 971 c-7 -15 -6 -23 6 -35 19 -19 26 -20 42 -4 17 17 15 45 -4
52 -25 10 -33 7 -44 -13z"/>
<path d="M5543 976 c-62 -28 -79 -109 -32 -152 11 -11 53 -35 92 -54 83 -40
105 -74 73 -109 -48 -52 -124 -33 -162 40 -13 27 -27 49 -29 49 -3 0 -5 -29
-5 -64 0 -62 0 -63 28 -64 15 0 54 -4 86 -8 92 -11 146 28 146 105 0 43 -33
76 -100 100 -34 13 -70 31 -81 42 -40 40 -12 99 48 99 40 0 73 -27 81 -68 11
-54 27 -41 30 24 l3 61 -33 -1 c-18 0 -51 3 -73 7 -27 5 -51 2 -72 -7z"/>
<path d="M6596 964 c-18 -18 -26 -37 -26 -60 0 -30 -3 -34 -25 -34 -31 0 -33
-17 -2 -22 20 -3 22 -9 25 -83 4 -112 0 -125 -43 -125 -45 0 -55 20 -55 112 0
97 -17 118 -94 118 -35 0 -58 -5 -66 -15 -7 -8 -16 -15 -21 -15 -5 0 -9 7 -9
15 0 11 -12 15 -50 15 -50 0 -70 -16 -27 -22 21 -3 22 -7 22 -103 l0 -100 -29
2 c-55 4 -56 6 -56 98 0 109 -12 125 -100 125 -47 0 -64 -4 -80 -20 -11 -11
-20 -24 -20 -29 0 -12 28 -41 39 -41 17 0 32 30 26 50 -6 17 -2 20 28 20 40 0
60 -19 55 -51 -2 -19 -14 -25 -63 -36 -92 -20 -123 -76 -70 -128 29 -30 59
-31 104 -4 l33 20 15 -21 c11 -16 21 -20 37 -15 11 4 58 6 104 5 76 -1 109 11
62 23 -18 5 -20 13 -20 84 0 84 4 94 37 112 31 16 50 14 73 -9 17 -17 20 -33
20 -101 0 -72 -2 -81 -20 -86 -54 -14 -6 -23 126 -23 94 0 143 4 139 10 -3 6
-13 10 -20 10 -20 0 -26 33 -23 125 l3 80 33 3 c43 4 41 22 -2 22 -35 0 -46
12 -46 54 0 24 17 46 36 46 8 0 12 -11 11 -27 -2 -24 2 -28 23 -28 18 0 26 6
28 23 8 55 -65 72 -112 26z m-506 -246 c0 -41 -8 -54 -42 -67 -18 -7 -30 -6
-41 2 -46 37 -11 94 61 96 18 1 22 -4 22 -31z"/>
<path d="M7358 983 c-29 -4 -39 -23 -14 -23 27 0 46 -30 46 -72 0 -35 -2 -39
-17 -32 -37 16 -113 16 -138 0 -65 -43 -73 -152 -16 -209 27 -27 39 -32 80
-32 34 0 55 6 70 19 19 17 21 17 21 3 0 -13 10 -17 45 -17 46 0 61 14 25 23
-18 5 -20 15 -22 173 l-3 169 -25 1 c-14 1 -37 -1 -52 -3z m-8 -143 c42 -23
46 -148 6 -188 -24 -24 -75 -19 -97 9 -24 31 -26 134 -3 167 16 24 61 30 94
12z"/>
<path d="M7865 981 c-82 -20 -130 -72 -141 -152 -17 -126 65 -218 194 -219 53
0 116 24 141 53 23 28 -9 30 -48 3 -112 -78 -225 -10 -224 135 1 100 54 159
142 159 36 0 49 -6 77 -34 19 -19 34 -41 34 -50 0 -9 7 -16 15 -16 12 0 15 13
15 60 0 54 -10 75 -24 51 -4 -5 -26 -3 -53 5 -50 15 -81 16 -128 5z"/>
<path d="M8358 983 c-35 -5 -36 -19 -3 -27 l25 -6 0 -150 c0 -82 -4 -151 -9
-154 -5 -3 -22 -3 -39 0 l-29 6 -5 89 c-7 116 -17 129 -103 129 -47 0 -66 -4
-78 -18 -21 -23 -22 -46 -2 -62 22 -18 48 6 40 37 -5 21 -2 23 34 23 41 0 51
-11 51 -55 0 -20 -7 -24 -47 -30 -91 -13 -126 -50 -103 -109 18 -48 79 -61
123 -26 l26 21 21 -21 c13 -13 28 -19 38 -15 9 3 122 6 250 5 134 0 232 3 232
9 0 5 -9 11 -20 14 -18 5 -20 14 -20 106 l0 101 30 0 c17 0 30 5 30 10 0 6
-15 10 -34 10 -29 0 -34 4 -40 31 -3 17 -1 39 4 50 14 26 40 25 37 -2 -1 -12
6 -26 16 -33 15 -9 21 -7 33 8 8 11 14 23 14 27 0 18 -34 39 -64 39 -41 0 -75
-34 -83 -84 -4 -26 -11 -36 -24 -36 -10 0 -21 -4 -24 -10 -4 -6 5 -10 19 -10
l26 0 0 -99 c0 -64 -4 -102 -11 -107 -19 -11 -71 -6 -80 8 -5 7 -9 59 -9 116
l0 102 -50 0 c-54 0 -64 -9 -27 -25 20 -9 22 -18 25 -103 3 -90 2 -92 -22
-101 -33 -13 -63 -3 -70 22 -3 12 -6 91 -6 175 0 170 7 157 -72 145z m-113
-270 c-11 -59 -37 -79 -84 -62 -18 7 -22 15 -19 41 3 36 33 58 82 58 27 0 28
-1 21 -37z"/>
<path d="M8532 978 c-30 -30 9 -69 44 -43 15 11 17 17 8 32 -14 23 -36 27 -52
11z"/>
<path d="M9687 983 c-13 -13 -7 -51 9 -57 20 -8 44 11 44 34 0 23 -37 39 -53
23z"/>
<path d="M2840 972 c0 -5 11 -14 25 -20 24 -11 25 -14 26 -119 0 -60 5 -124
12 -143 35 -102 214 -109 264 -10 7 14 13 50 13 81 0 31 3 84 7 118 5 53 10
65 30 74 41 18 25 27 -52 27 -79 0 -96 -11 -45 -29 l30 -10 0 -118 c0 -134 -8
-154 -65 -173 -30 -10 -41 -9 -72 7 -54 26 -63 51 -63 176 l0 109 30 11 c50
19 34 27 -55 27 -47 0 -85 -4 -85 -8z"/>
<path d="M1054 949 c-4 -7 -10 -26 -13 -43 -5 -20 -14 -32 -26 -34 -44 -7 -49
-16 -15 -21 l35 -6 3 -107 c2 -97 5 -109 23 -119 26 -14 83 -4 100 18 13 15
11 16 -17 10 -47 -9 -54 6 -54 110 l0 93 35 0 c19 0 35 5 35 10 0 6 -15 10
-34 10 -34 0 -35 1 -38 42 -3 41 -20 60 -34 37z"/>
<path d="M4866 938 c-9 -12 -16 -33 -16 -45 0 -18 -6 -23 -24 -23 -14 0 -28
-4 -31 -10 -4 -6 7 -10 24 -10 l31 0 0 -89 c0 -49 4 -101 10 -115 11 -30 47
-42 86 -29 34 11 47 39 15 30 -15 -4 -29 1 -42 14 -17 17 -19 31 -17 102 l3
82 38 3 c21 2 45 -2 52 -8 26 -21 116 -223 111 -246 -8 -29 -45 -74 -62 -74
-8 0 -14 10 -14 24 0 30 -24 40 -45 20 -18 -19 -19 -25 -1 -49 18 -24 71 -24
96 1 10 10 51 83 90 162 38 79 82 154 97 168 l26 24 -64 0 c-64 0 -64 -1 -41
-18 l24 -18 -33 -77 c-18 -42 -36 -77 -40 -77 -8 0 -69 136 -69 155 0 8 7 15
15 15 8 0 15 4 15 10 0 5 -44 11 -97 12 l-98 3 -3 43 c-4 47 -13 53 -36 20z"/>
<path d="M5817 943 c-8 -10 -17 -29 -19 -43 -2 -19 -10 -26 -30 -28 -38 -4
-36 -22 2 -22 l30 0 0 -104 c0 -84 3 -108 17 -121 20 -21 79 -14 102 11 15 15
14 16 -15 11 -47 -9 -54 6 -54 110 l0 93 35 0 c19 0 35 5 35 10 0 6 -16 10
-35 10 -35 0 -35 0 -35 45 0 48 -8 55 -33 28z"/>
<path d="M2350 873 c-8 -3 -23 -12 -32 -21 -16 -14 -18 -13 -18 1 0 14 -10 17
-50 17 -54 0 -64 -9 -27 -25 20 -9 22 -18 25 -95 3 -83 2 -86 -25 -107 l-28
-23 78 0 c50 0 76 4 72 10 -3 6 -13 10 -20 10 -8 0 -18 12 -21 26 -11 43 2
144 22 165 22 25 44 25 37 0 -3 -13 2 -21 16 -26 28 -9 41 1 41 30 0 33 -33
51 -70 38z"/>
<path d="M4367 860 c-23 -18 -27 -19 -35 -5 -6 12 -21 15 -58 13 -46 -3 -48
-4 -23 -15 29 -12 39 -44 39 -119 0 -54 -15 -94 -35 -94 -8 0 -15 -4 -15 -10
0 -6 32 -10 76 -10 47 0 73 4 69 10 -3 6 -13 10 -20 10 -57 0 -35 188 23 208
7 2 12 -6 12 -17 0 -26 25 -38 45 -21 12 10 15 9 15 -6 1 -30 22 -50 83 -79
46 -22 57 -32 57 -51 0 -58 -91 -53 -113 6 -16 43 -27 37 -27 -14 l0 -44 61
-7 c52 -6 65 -4 88 12 33 25 49 68 35 91 -6 9 -37 31 -70 47 -48 25 -59 35
-59 55 0 22 5 25 37 28 33 3 39 0 53 -29 20 -37 38 -27 33 17 -3 28 -5 29 -67
32 -54 3 -67 0 -87 -19 -20 -19 -24 -20 -24 -6 0 17 -28 37 -53 37 -8 0 -26
-9 -40 -20z"/>
<path d="M7110 873 c-8 -3 -23 -12 -32 -21 -16 -14 -18 -13 -18 1 0 14 -10 17
-50 17 -54 0 -64 -9 -27 -25 20 -9 22 -18 25 -103 3 -91 2 -92 -23 -102 -14
-5 -25 -12 -25 -15 0 -3 34 -5 75 -5 43 0 75 4 75 10 0 6 -9 10 -19 10 -24 0
-31 19 -31 83 0 59 26 120 52 125 12 2 16 -1 13 -11 -7 -18 20 -41 40 -33 22
8 19 53 -4 66 -21 11 -28 11 -51 3z"/>
<path d="M9213 868 c-13 -6 -23 -15 -23 -20 0 -4 -4 -8 -10 -8 -5 0 -10 7 -10
15 0 11 -12 15 -50 15 -27 0 -50 -4 -50 -10 0 -5 9 -10 20 -10 28 0 40 -30 40
-105 0 -71 -12 -105 -35 -105 -8 0 -15 -4 -15 -10 0 -6 32 -10 75 -10 41 0 75
2 75 5 0 3 -11 10 -25 15 -23 9 -25 14 -25 80 0 74 19 130 45 130 7 0 15 -10
17 -22 2 -15 10 -23 23 -23 11 0 24 10 30 23 5 12 15 22 20 22 27 0 35 -27 35
-113 0 -80 -2 -89 -20 -94 -43 -11 -17 -23 51 -23 44 0 68 4 64 10 -3 6 -12
10 -20 10 -36 0 -31 162 6 193 26 21 58 22 85 3 16 -12 20 -29 23 -100 3 -84
3 -86 -23 -96 -14 -5 -26 -12 -26 -15 0 -3 65 -5 145 -5 131 0 179 9 125 23
-18 5 -20 14 -20 116 l0 111 -55 0 c-60 0 -68 -5 -30 -20 25 -10 26 -11 23
-107 l-3 -98 -40 0 -40 0 -5 93 c-4 83 -8 96 -29 113 -29 24 -107 26 -139 3
-20 -14 -22 -14 -22 1 0 13 -11 16 -57 14 -32 -1 -69 1 -83 4 -14 4 -35 1 -47
-5z"/>
<path d="M1954 836 c-30 -30 -34 -40 -34 -85 0 -65 20 -104 64 -125 60 -28
138 -15 180 32 24 27 32 103 16 142 -20 49 -59 70 -130 70 -57 0 -65 -3 -96
-34z m157 -3 c9 -10 14 -42 14 -90 0 -66 -3 -77 -24 -94 -32 -26 -67 -24 -96
6 -21 20 -25 34 -25 87 0 84 16 108 74 108 28 0 48 -6 57 -17z"/>
<path d="M3220 860 c0 -5 7 -10 15 -10 24 0 35 -35 35 -110 0 -64 -3 -73 -26
-95 l-27 -25 77 0 c42 0 76 2 76 5 0 3 -11 10 -25 15 -24 9 -25 13 -25 89 0
74 2 81 26 100 61 48 106 14 112 -83 4 -66 -8 -106 -33 -106 -8 0 -15 -4 -15
-10 0 -6 55 -10 145 -10 90 0 145 4 145 10 0 6 -9 10 -19 10 -27 0 -31 18 -31
131 l0 99 -50 0 c-54 0 -64 -9 -27 -25 21 -9 22 -16 22 -105 l0 -95 -40 0 -40
0 -2 60 c-6 136 -25 165 -107 165 -32 0 -56 -6 -68 -17 -17 -15 -18 -15 -18 0
0 14 -10 17 -50 17 -27 0 -50 -4 -50 -10z"/>
<path d="M3680 860 c0 -5 7 -10 15 -10 10 0 35 -42 70 -115 70 -149 76 -150
141 -14 27 56 59 109 71 119 13 10 23 21 23 24 0 3 -25 6 -55 6 -30 0 -55 -4
-55 -10 0 -5 7 -10 15 -10 8 0 15 -7 15 -15 0 -26 -63 -166 -70 -158 -4 4 -22
41 -40 82 l-32 74 23 18 c24 18 24 19 -48 19 -42 0 -73 -4 -73 -10z"/>
<path d="M4027 849 c-79 -61 -46 -217 50 -235 40 -8 105 9 123 31 19 23 5 28
-29 11 -16 -9 -42 -16 -56 -16 -36 0 -77 43 -73 78 l3 27 88 1 c49 1 91 4 94
7 12 13 -11 69 -39 92 -39 33 -122 36 -161 4z m125 -16 c10 -9 18 -27 18 -40
0 -22 -3 -23 -66 -23 l-66 0 7 27 c4 16 11 34 17 40 15 18 68 16 90 -4z"/>
<path d="M4660 861 c0 -5 11 -12 25 -15 24 -6 25 -8 25 -101 0 -93 -1 -96 -25
-105 -14 -5 -25 -12 -25 -15 0 -3 35 -5 78 -5 l77 0 -25 19 c-23 19 -24 23
-22 125 l3 106 -55 0 c-31 0 -56 -4 -56 -9z"/>
<path d="M6718 841 c-31 -28 -33 -34 -33 -95 0 -60 3 -68 31 -97 58 -57 156
-51 210 14 23 28 26 38 22 91 -4 51 -9 63 -36 87 -29 26 -40 29 -97 29 -57 0
-68 -3 -97 -29z m156 -13 c11 -15 16 -45 16 -86 0 -53 -4 -67 -25 -87 -31 -32
-69 -32 -100 0 -21 20 -25 34 -25 87 0 85 16 108 75 108 34 0 47 -5 59 -22z"/>
<path d="M8852 857 c-79 -44 -79 -179 0 -227 58 -35 160 -18 193 34 38 61 24
154 -28 186 -37 23 -129 27 -165 7z m132 -26 c25 -27 32 -108 13 -153 -17 -40
-48 -55 -93 -44 -52 14 -73 148 -29 196 24 26 86 27 109 1z"/>
<path d="M9832 854 c-27 -19 -29 -50 -3 -63 24 -13 46 10 38 39 -4 18 0 20 34
20 41 0 47 -6 51 -49 3 -21 -2 -26 -37 -33 -75 -15 -84 -18 -99 -34 -9 -8 -16
-31 -16 -50 0 -67 64 -95 125 -54 29 19 29 19 48 -1 20 -21 50 -19 77 7 12 12
11 14 -12 14 -26 0 -26 1 -30 89 -4 114 -17 131 -97 131 -35 0 -65 -6 -79 -16z
m128 -126 c-1 -61 -52 -101 -91 -69 -43 34 -5 89 64 90 22 1 27 -3 27 -21z"/>
<path d="M5257 673 c-15 -15 -7 -55 13 -60 25 -7 25 -11 -2 -40 -29 -31 -18
-39 16 -12 39 31 50 66 31 95 -15 23 -44 32 -58 17z"/>
<path d="M7513 673 c-7 -2 -13 -15 -13 -28 0 -17 8 -26 27 -32 l28 -10 -29
-26 c-34 -31 -29 -46 7 -23 67 45 50 148 -20 119z"/>
</g>
</svg>
